<svg width="39" height="66" viewBox="0 0 39 66" fill="none" xmlns="http://www.w3.org/2000/svg">
<g clip-path="url(#clip0)">
<path d="M9.00985 34.2301C8.21315 34.0158 7.40534 33.8455 6.58993 33.7201C5.73215 33.5259 4.83905 33.5526 3.99435 33.7974C3.14964 34.0422 2.38085 34.4973 1.75985 35.1201C0.943289 36.0966 0.413619 37.2805 0.229821 38.5401C-0.15952 40.4389 -0.0479556 42.4064 0.553429 44.2492C1.15481 46.0919 2.22537 47.7464 3.65987 49.0501C5.69701 51.0697 7.95447 52.8542 10.3899 54.3701C10.7368 54.5637 11.0328 54.8368 11.2536 55.1671C11.4744 55.4975 11.6137 55.8755 11.6599 56.2701C12.3982 59.0356 13.3306 61.7457 14.4499 64.3801C14.5099 64.5078 14.5991 64.6195 14.7103 64.7064C14.8215 64.7932 14.9515 64.8527 15.0899 64.8801C19.9897 66.2544 25.1671 66.2992 30.0899 65.0101C31.2299 64.6301 31.2298 64.6301 31.7498 63.4901C33.7129 58.2039 35.1206 52.7277 35.9499 47.1501C36.7315 42.0793 37.0662 36.9495 36.9499 31.8201C36.9499 30.9401 36.9499 30.8201 35.9499 30.5601C34.4187 30.1072 32.8358 29.8518 31.2398 29.8001C27.0955 29.4634 22.9347 29.3766 18.7799 29.5401C16.1311 29.5893 13.4929 29.8873 10.8999 30.4301C10.2599 30.5601 9.75983 30.8101 9.23983 30.9401C8.98983 31.0601 8.85983 31.1901 8.85983 31.4401C8.97777 32.3652 9.02792 33.2977 9.00985 34.2301V34.2301ZM10.6599 51.9501H10.5399C6.30988 49.7301 3.46986 46.4701 3.14986 41.4101C3.06682 40.3448 3.18207 39.2733 3.48983 38.2501C3.62559 37.8129 3.87028 37.4174 4.20089 37.1008C4.5315 36.7842 4.93721 36.5568 5.37985 36.4401C6.07923 36.331 6.79519 36.4525 7.4194 36.7863C8.04361 37.12 8.54223 37.6479 8.83993 38.2901V39.6901C9.01965 42.7872 9.39372 45.8699 9.95992 48.9201C10.0799 49.8101 10.3498 50.8101 10.6098 51.9201L10.6599 51.9501Z" fill="url(#paint0_linear)"/>
<path d="M9.23975 30.9399C9.23975 30.9399 22.6998 26.8299 36.9598 30.9399C36.9598 30.9099 25.0997 35.6899 9.23975 30.9399Z" fill="#4A41BC"/>
<path d="M31.7999 0C32.2609 2.46052 32.1595 4.99344 31.5032 7.40921C30.8468 9.82498 29.6526 12.061 28.0099 13.95C26.6599 15.72 25.2999 17.27 23.9499 19.04C21.8528 21.7592 20.4583 24.9534 19.8899 28.34C19.8899 28.78 19.6199 29.45 19.6199 29.89C19.6199 29 19.3499 28.34 19.3499 27.45C19.2583 23.427 20.6018 19.5027 23.1399 16.38C24.2325 14.9111 25.4077 13.5055 26.6599 12.17C29.253 9.03847 31.0233 5.30901 31.8099 1.32001" fill="url(#paint1_linear)"/>
<path d="M14.19 24.5799C14.1506 24.1278 14.06 23.6817 13.92 23.25C13.7738 19.9147 14.9405 16.6549 17.17 14.17C18.3918 12.8001 19.4801 11.3167 20.42 9.73995C21.6159 7.84507 22.4436 5.74166 22.8599 3.53997C22.9099 3.27997 23.08 2.08997 23.08 2.84997L23.1299 3.09997C23.2671 3.68181 23.3574 4.27369 23.4 4.86996C23.3729 7.86397 22.3133 10.7569 20.4 13.06L17.15 17.06C15.9962 18.6826 15.149 20.5025 14.65 22.43C14.5968 22.6696 14.57 22.9144 14.57 23.16C14.5679 23.6626 14.4334 24.1558 14.18 24.59L14.19 24.5799Z" fill="url(#paint2_linear)"/>
<path d="M28.91 26.56C28.91 26.46 28.6899 25.61 28.6199 24.86C28.4737 21.5247 29.6405 18.265 31.8699 15.78C33.0918 14.4101 34.18 12.9267 35.1199 11.35C36.3158 9.45512 37.1437 7.35168 37.56 5.14999C37.62 4.91999 37.9 3.76998 37.81 4.57998V4.79998C37.934 5.35399 38.0241 5.91505 38.08 6.48001C38.053 9.47402 36.9933 12.3669 35.08 14.67L31.83 18.67C30.6763 20.2926 29.829 22.1126 29.33 24.04C29.2768 24.2797 29.2499 24.5245 29.2499 24.77C29.232 25.2803 29.141 25.7854 28.9799 26.27L28.91 26.56Z" fill="url(#paint3_linear)"/>
</g>
<defs>
<linearGradient id="paint0_linear" x1="42.9099" y1="39.9001" x2="-17.3302" y2="60.8301" gradientUnits="userSpaceOnUse">
<stop stop-color="#59CFEE"/>
<stop offset="1" stop-color="#4A41BC"/>
</linearGradient>
<linearGradient id="paint1_linear" x1="13682.1" y1="-46711.1" x2="13467" y2="-46508.6" gradientUnits="userSpaceOnUse">
<stop stop-color="#59CFEE"/>
<stop offset="1" stop-color="#4A41BC"/>
</linearGradient>
<linearGradient id="paint2_linear" x1="10127.7" y1="-34121.1" x2="10015.1" y2="-33988.8" gradientUnits="userSpaceOnUse">
<stop stop-color="#59CFEE"/>
<stop offset="1" stop-color="#4A41BC"/>
</linearGradient>
<linearGradient id="paint3_linear" x1="10260.1" y1="-34523.3" x2="10144.4" y2="-34389.2" gradientUnits="userSpaceOnUse">
<stop stop-color="#59CFEE"/>
<stop offset="1" stop-color="#4A41BC"/>
</linearGradient>
<clipPath id="clip0">
<rect width="38.14" height="65.94" fill="white"/>
</clipPath>
</defs>
</svg>
