<svg width="213" height="674" viewBox="0 0 213 674" fill="none" xmlns="http://www.w3.org/2000/svg">
<path d="M69.8359 623.816L52.6359 627.716C52.6359 627.716 48.4359 641.316 46.5359 648.616C46.4359 649.016 46.036 650.316 45.736 651.116C45.436 652.416 45.3359 653.616 45.3359 654.916C45.7359 661.416 48.236 667.016 53.936 669.916C60.336 673.216 65.3359 676.216 72.1359 669.916C78.9359 663.616 80.136 659.716 77.236 648.916C74.236 638.116 69.8359 623.816 69.8359 623.816Z" fill="#4B44BE"/>
<path d="M169.936 646.416C158.336 642.716 153.336 628.416 153.336 628.416L129.936 627.216C129.936 627.216 129.436 641.816 128.736 649.816C127.936 660.416 129.936 665.116 136.936 664.416C146.336 663.616 184.736 667.016 190.736 663.216C198.836 658.416 180.836 649.816 169.936 646.416Z" fill="#4B44BE"/>
<path d="M33.7365 293.916C33.7365 293.916 25.0365 305.916 22.2365 338.316C19.4365 370.716 25.6365 432.216 28.5365 444.116C31.4365 456.016 42.9365 567.016 45.7365 575.216C48.6365 583.416 52.5365 627.616 52.5365 627.616L71.0365 628.116C71.0365 628.116 76.5365 570.416 76.5365 555.116C76.5365 539.816 84.1364 395.316 83.6364 384.716C83.1364 374.116 85.6364 377.516 85.6364 377.516C85.6364 377.516 101.936 429.316 106.836 438.016C111.636 446.616 120.336 463.516 120.336 463.516C120.336 463.516 122.336 517.716 124.636 549.016C127.036 580.316 129.436 629.716 129.436 629.716L154.336 629.216C154.336 629.216 160.036 546.716 160.036 529.316C160.036 511.916 165.236 470.316 165.236 465.416C165.236 460.516 148.936 376.116 148.936 376.116L137.536 293.816L33.7365 293.916Z" fill="url(#paint0_linear)"/>
<path d="M43.9352 67.1163C43.9352 67.1163 54.7352 24.9163 63.2352 21.8163C96.6352 9.41635 100.035 -11.4837 114.335 48.3163C128.635 108.116 168.035 177.516 184.835 198.016C207.935 226.116 206.035 244.216 197.735 245.916C189.435 247.616 147.435 258.716 144.235 259.716C140.935 260.716 151.035 289.916 136.935 285.816C129.135 283.616 128.435 249.016 138.235 247.416C142.235 246.716 188.935 237.516 188.635 234.716C188.335 231.916 152.335 181.916 152.335 181.916L129.135 170.916L71.5352 139.916L43.9352 126.216L41.0352 80.4163L39.0352 71.5163L43.9352 67.1163Z" fill="url(#paint1_linear)"/>
<path d="M36.536 123.617C36.536 123.617 36.836 126.917 28.936 138.117C24.236 144.917 36.136 140.117 26.036 157.217C10.136 184.217 1.23597 213.217 0.0359715 231.217C-0.664029 242.317 9.03595 240.117 13.1359 243.617C15.3359 245.617 22.636 242.316 24.336 239.816L27.6359 234.117C28.5359 232.817 37.436 219.717 37.736 218.217C38.536 213.117 43.4359 191.617 45.1359 183.917C46.5359 177.417 58.036 162.517 67.336 131.817C70.036 122.417 67.336 118.517 68.036 114.217C70.036 100.217 50.436 100.517 48.736 105.317C48.336 106.517 33.4359 165.217 32.6359 173.117C32.3359 175.717 37.6359 199.017 41.6359 205.417C45.6359 211.817 50.236 216.417 50.236 222.017C50.236 227.617 47.636 250.616 43.436 260.816C39.236 271.016 33.236 294.517 33.236 294.517L137.536 294.017C137.536 294.017 133.736 249.217 135.336 233.717C135.336 233.717 139.736 183.217 142.436 178.217C145.036 173.217 173.036 218.716 180.036 230.316C182.936 235.116 143.236 243.617 139.936 247.417C136.636 251.217 143.336 261.816 143.336 261.816C143.336 261.816 212.636 253.317 212.336 242.717C212.036 232.117 172.736 150.617 158.836 135.217C144.936 119.817 141.236 120.317 129.436 124.517C117.636 128.717 112.036 132.517 96.236 135.117C84.736 137.117 72.8359 135.017 62.6359 129.117C57.0359 125.317 36.536 123.617 36.536 123.617Z" fill="url(#paint2_linear)"/>
<path d="M22.2368 163.916C23.4368 162.216 24.6367 160.516 25.5367 158.716C26.4367 157.016 27.1367 156.016 27.5367 155.216C32.6367 146.616 44.2367 126.916 46.0367 118.216C47.0367 114.816 47.8368 111.316 48.4368 107.816C48.8368 105.416 48.9368 103.016 48.7368 100.616C48.0368 96.2164 39.0367 77.6164 40.3367 75.9164C40.4367 75.6164 41.6367 70.4164 43.3367 72.1164C45.3367 74.1164 58.1367 81.1164 59.0367 82.4164C61.5367 86.8164 63.4368 91.5164 64.9368 96.4164C65.8368 99.3164 66.6368 107.616 66.9368 108.316C69.6368 115.216 66.5367 120.416 66.8367 124.116C66.9367 125.416 66.9367 130.616 67.6367 131.216C69.4367 132.516 71.9367 133.716 73.0367 132.416C74.0367 131.116 73.7367 127.416 73.8367 123.816C74.5367 104.916 70.9367 87.5164 66.5367 78.4164C62.1367 69.3164 51.7367 51.4164 58.8367 41.1164C65.9367 30.8164 80.6367 22.7164 81.3367 20.1164C82.0367 17.5164 82.3368 30.0164 90.2368 34.5164C98.0368 38.9164 109.037 50.8164 109.037 53.3164C109.037 55.8164 111.637 64.4164 104.237 79.2164C96.8368 94.0164 90.9368 112.916 101.237 126.916C111.537 140.916 137.537 160.616 139.337 165.016C141.137 169.416 139.337 189.216 138.637 200.316C137.937 211.416 159.637 181.416 158.837 166.916C158.037 152.416 160.637 146.116 145.937 124.116C131.137 102.016 121.537 63.9164 121.137 54.6164C120.737 45.3164 116.437 19.9164 107.537 12.4164C98.6367 5.0164 97.8368 -1.9836 73.2368 0.516401C73.2368 0.516401 52.4367 1.3164 46.6367 21.5164C40.8367 41.7164 39.8367 70.2164 39.5367 74.7164C39.2367 79.4164 41.3368 108.116 38.7368 117.116C36.1368 126.116 23.9367 145.316 21.6367 153.116" fill="url(#paint3_linear)"/>
<path opacity="0.07" d="M61.8355 627.716C61.9355 628.116 61.9355 628.516 61.9355 628.916C62.0355 631.816 61.9355 639.016 58.8355 643.516C54.9355 649.516 64.2355 662.716 64.2355 666.016C64.2355 669.316 59.9355 672.316 56.9355 671.416C53.9355 670.516 41.4355 663.416 46.3355 648.316C48.3355 642.216 49.4355 636.816 50.6355 633.416C51.3355 631.716 51.8355 630.016 52.3355 628.316C52.4355 627.516 52.4355 626.716 52.4355 625.916C52.3355 624.916 52.3355 623.716 52.1355 622.516C51.4355 616.616 26.6355 433.416 25.7355 426.316C24.9355 420.016 21.3355 381.216 21.7355 358.516C21.4355 356.516 21.4355 354.616 21.6355 352.816C21.6355 352.316 21.9355 350.116 21.7355 349.116C21.8355 347.016 22.0355 344.916 22.2355 342.816C21.8355 341.116 22.1355 341.116 22.2355 338.416C22.3355 335.716 22.2355 334.116 22.5355 332.416C25.0355 317.016 30.6355 299.516 33.3355 294.516L34.1355 291.816C34.1355 291.816 38.7355 271.216 40.8355 266.916C42.6355 263.016 50.6355 224.216 49.9355 219.916C49.2355 215.616 40.9355 204.616 40.9355 204.616L42.1355 198.716C42.1355 198.716 44.7355 190.116 47.3355 182.816C49.4355 177.216 56.0355 162.316 58.8355 155.916C63.2355 145.516 65.3355 141.416 66.2355 134.516C66.9355 129.316 67.4355 131.516 69.7355 132.516C73.1355 133.816 73.2355 132.116 73.4355 128.816C73.5355 118.616 73.1355 108.616 72.2355 98.4164C71.2355 90.4164 62.9355 77.6164 59.4355 69.8164C57.3355 65.8164 55.7355 61.4164 54.4355 57.0164C52.8355 50.2164 53.0355 42.6164 59.4355 36.2164C65.0355 30.6164 81.7355 19.0164 81.7355 19.0164C81.7355 19.0164 74.0355 34.7164 77.1355 40.0164C82.2355 48.2164 79.7355 58.7164 79.7355 62.3164C79.7355 65.9164 75.7355 75.1164 78.1355 84.4164C82.4355 100.716 75.0355 110.016 77.7355 121.116C79.4355 127.916 80.4355 130.116 78.7355 136.116C77.0355 142.116 60.2355 187.716 69.4355 214.216C78.7355 240.716 83.0355 259.516 68.1355 275.416C53.2355 291.316 66.9355 305.616 67.2355 316.816C67.9355 344.516 54.4355 341.516 53.6355 358.716C52.8355 375.916 56.6355 388.316 56.9355 397.416C57.6355 427.016 57.2355 432.916 55.6355 444.516C54.0355 456.116 46.1355 478.216 54.9355 521.616C63.8355 565.016 62.5355 568.916 61.6355 593.416C60.9355 618.116 61.8355 627.716 61.8355 627.716Z" fill="black"/>
<path d="M36.8364 58.4163C40.3364 55.9163 44.1364 53.7163 48.0364 51.7163C52.8364 49.7163 55.1364 56.9163 56.4364 60.2163C57.7364 63.5163 64.2364 83.6163 64.5364 85.1163C64.6364 85.8163 63.6364 85.6163 60.2364 88.2163C59.7364 88.6163 58.8364 88.3163 57.7364 86.0163C57.2364 84.7163 55.5364 81.6163 53.5364 80.5163C52.7364 80.1163 40.4364 75.8163 40.3364 77.0163C40.2364 78.2163 43.2364 85.6163 44.7364 89.9163C44.8364 90.3163 46.9364 94.6163 46.5364 95.4163C46.4364 95.5163 46.6364 95.4163 46.6364 95.4163C46.6364 95.4163 44.4364 96.2163 43.7364 95.4163C43.0364 94.6163 36.8364 74.4163 34.4364 66.7163C33.9364 65.0163 32.7364 62.7163 33.9364 61.6163L36.8364 58.4163Z" fill="#EFEFEF"/>
<defs>
<linearGradient id="paint0_linear" x1="-32.164" y1="460.683" x2="190.355" y2="462.145" gradientUnits="userSpaceOnUse">
<stop stop-color="#4F68CA"/>
<stop offset="1" stop-color="#5ACEED"/>
</linearGradient>
<linearGradient id="paint1_linear" x1="39.1001" y1="147.089" x2="203.434" y2="147.089" gradientUnits="userSpaceOnUse">
<stop stop-color="#F87B58"/>
<stop offset="0.5" stop-color="#F8C548"/>
<stop offset="1" stop-color="#F89C51"/>
</linearGradient>
<linearGradient id="paint2_linear" x1="0.0216714" y1="198.301" x2="212.27" y2="198.301" gradientUnits="userSpaceOnUse">
<stop stop-color="#E1A1ED"/>
<stop offset="1" stop-color="#7658F4"/>
</linearGradient>
<linearGradient id="paint3_linear" x1="21.3407" y1="100.974" x2="158.616" y2="100.974" gradientUnits="userSpaceOnUse">
<stop stop-color="#4B44BE"/>
<stop offset="1" stop-color="#5BD3EF"/>
</linearGradient>
</defs>
</svg>
