<svg width="167" height="156" viewBox="0 0 167 156" fill="none" xmlns="http://www.w3.org/2000/svg">
<g clip-path="url(#clip0)">
<path d="M2.21988 89.5402L83.0899 9.54022C84.052 8.58192 85.2595 7.90722 86.5799 7.59021L116.88 0.210202C118.134 -0.0945781 119.445 -0.0706115 120.687 0.279752C121.929 0.630116 123.06 1.29502 123.97 2.2102L153.86 32.3702C154.761 33.2706 155.418 34.386 155.768 35.6109C156.118 36.8357 156.149 38.1296 155.86 39.3702L148.44 70.6502C148.116 71.9962 147.423 73.2254 146.44 74.2002L67.3199 153.61C65.9266 155.009 64.0367 155.801 62.0623 155.812C60.0878 155.823 58.189 155.053 56.7799 153.67L2.2399 100.19C1.53321 99.4957 0.971531 98.6677 0.587522 97.7543C0.203514 96.8409 0.00480362 95.8602 0.00294288 94.8694C0.00108213 93.8785 0.196113 92.8972 0.576689 91.9824C0.957264 91.0675 1.5158 90.2374 2.21988 89.5402Z" fill="url(#paint0_linear)"/>
<path d="M125.44 40.2798C130.416 40.2798 134.45 36.2459 134.45 31.2698C134.45 26.2937 130.416 22.2598 125.44 22.2598C120.464 22.2598 116.43 26.2937 116.43 31.2698C116.43 36.2459 120.464 40.2798 125.44 40.2798Z" fill="white" stroke="url(#paint1_linear)" stroke-miterlimit="10"/>
<path d="M75.5198 118.16C80.4958 118.16 84.5298 114.126 84.5298 109.15C84.5298 104.174 80.4958 100.14 75.5198 100.14C70.5437 100.14 66.5098 104.174 66.5098 109.15C66.5098 114.126 70.5437 118.16 75.5198 118.16Z" fill="white"/>
<path d="M75.5198 59.06C80.4958 59.06 84.5298 55.0261 84.5298 50.05C84.5298 45.074 80.4958 41.04 75.5198 41.04C70.5437 41.04 66.5098 45.074 66.5098 50.05C66.5098 55.0261 70.5437 59.06 75.5198 59.06Z" fill="white"/>
<path d="M116.42 74.1001H34.6001V84.5301H116.42V74.1001Z" fill="white"/>
<path d="M119.32 36.1901C119.32 36.1901 134.8 25.4501 137.41 41.1001C140.02 56.7501 126.5 84.3001 137.41 114.45C152.41 155.81 175.97 113.96 161.51 101.38C143.81 85.9801 147.51 71.5001 147.51 71.5001" stroke="#7A5BF5" stroke-miterlimit="10"/>
</g>
<defs>
<linearGradient id="paint0_linear" x1="-0.000124441" y1="77.9102" x2="156.03" y2="77.9102" gradientUnits="userSpaceOnUse">
<stop stop-color="#CD94EF"/>
<stop offset="1" stop-color="#7A5BF5"/>
</linearGradient>
<linearGradient id="paint1_linear" x1="2205.49" y1="585.745" x2="2548.23" y2="585.745" gradientUnits="userSpaceOnUse">
<stop stop-color="#CD94EF"/>
<stop offset="1" stop-color="#7A5BF5"/>
</linearGradient>
<clipPath id="clip0">
<rect width="166.49" height="155.81" fill="white"/>
</clipPath>
</defs>
</svg>
