<svg width="235" height="600" viewBox="0 0 235 600" fill="none" xmlns="http://www.w3.org/2000/svg">
<g clip-path="url(#clip0)">
<path d="M231.281 592.684C227.922 590.526 223.964 587.767 214.127 585.848C206.09 584.409 201.292 571.817 201.292 571.817H182.578C182.578 571.817 180.898 592.684 181.738 594.363C182.578 596.042 183.058 597.841 187.376 599.16C191.695 600.48 229.602 600 231.281 599.64C232.961 599.28 237.639 596.762 231.281 592.684Z" fill="#4B49BB"/>
<path d="M13.6754 392.045C11.1562 395.763 0.119965 431.981 6.17281e-06 433.78C-0.119953 435.579 0.83972 440.736 6.59776 435.938C9.7167 433.3 13.5554 430.422 18.2338 421.547C22.0725 414.351 35.5079 413.512 35.5079 413.512L41.266 395.763C41.266 395.763 21.8326 387.847 19.9132 388.087C17.9939 388.327 16.1945 388.327 13.6754 392.045Z" fill="#4B49BB"/>
<path d="M136.873 326.324C136.394 326.444 135.794 329.922 135.674 330.402C132.915 339.276 106.884 418.429 106.884 421.787C106.884 425.145 51.1026 399.96 42.1057 396.002C41.3859 395.643 40.6662 396.002 40.3063 396.602C38.5069 400.44 33.3487 411.833 35.148 413.152C37.4273 414.711 96.0873 456.566 100.886 457.765C105.684 458.965 112.882 464.961 124.877 450.57C135.194 438.217 163.984 391.445 172.021 378.373C172.381 377.773 173.221 377.534 173.821 377.893C174.181 378.133 174.421 378.493 174.541 378.973C175.98 391.565 176.58 440.376 180.778 453.448C184.977 466.52 178.979 480.552 178.979 499.74L182.458 570.378C182.458 571.097 183.058 571.697 183.777 571.697L199.972 572.057C200.692 572.057 201.291 571.577 201.411 570.858C202.491 559.464 213.167 474.076 214.247 460.764C215.447 446.372 222.404 325.605 220.485 318.289C219.045 313.732 145.75 324.885 136.873 326.324Z" fill="url(#paint0_linear)"/>
<path d="M142.871 113.692C142.871 113.692 146.95 97.3816 150.189 97.3816C153.428 97.3816 173.101 99.7801 175.5 111.293C177.899 122.806 186.896 129.282 186.896 143.194C186.896 157.106 192.654 163.582 192.654 163.582C192.654 163.582 199.132 143.074 203.931 134.199C208.729 125.325 217.246 119.688 217.246 113.692C217.246 107.695 210.049 39.5762 209.449 37.7773C208.849 35.9784 207.05 25.1849 211.248 19.0685C211.248 19.0685 224.204 8.39495 225.883 4.07754C227.203 0.479695 231.401 -1.55908 233.8 2.6384C236.2 6.83588 226.243 18.229 224.564 22.7863C223.124 27.1037 222.044 31.5411 221.565 36.0983C221.565 37.2976 219.165 55.4067 219.165 64.4014C219.165 73.396 224.564 101.819 224.564 110.814C224.564 119.808 204.65 155.906 202.851 162.622C201.052 169.338 143.111 232.54 141.912 234.339C140.712 236.138 134.714 250.05 134.714 254.847C134.714 259.644 134.714 275.355 137.113 272.357C139.513 269.358 149.469 245.373 151.269 242.375C153.068 239.376 167.343 236.498 174.061 234.699C180.778 232.9 190.615 236.498 189.416 240.696C188.216 244.893 168.663 252.808 162.425 254.367C158.466 255.327 141.312 274.275 140.112 279.672C138.913 285.069 123.198 277.274 123.198 269.478C123.198 261.683 124.997 221.867 127.397 216.47C129.796 211.073 140.712 187.567 146.71 175.455C152.708 163.342 139.513 157.346 137.113 148.951C134.714 140.556 142.871 113.692 142.871 113.692Z" fill="url(#paint1_linear)"/>
<path d="M194.694 152.189C194.694 152.189 210.408 124.006 211.968 116.93C213.527 109.854 209.569 37.5374 209.569 37.5374L221.685 35.7385C221.685 35.7385 233.321 102.778 234.88 110.574C236.439 118.369 230.801 135.159 225.403 144.633C220.005 154.108 205.13 193.804 205.13 198.481C205.13 203.158 206.09 247.651 208.489 256.286C210.888 264.921 220.605 318.529 220.605 318.529L136.633 326.444C136.633 326.444 140.352 303.058 140.112 295.263C139.513 278.113 134.834 265.401 147.31 257.366C155.707 252.089 163.624 254.607 172.621 250.17C183.058 245.013 185.457 240.815 186.057 237.937C186.417 236.258 183.777 232.421 167.583 238.417C162.185 240.456 151.268 240.336 151.029 247.292C150.909 253.168 158.466 265.88 149.349 271.637C149.349 271.637 138.913 296.222 129.196 300.06C120.799 303.298 110.842 294.423 111.082 282.79C111.322 268.879 112.162 242.255 118.52 230.622C124.877 218.989 142.272 189.126 145.39 186.728C148.509 184.329 157.986 195.723 169.022 194.163C180.059 192.604 184.617 187.448 187.016 182.051C189.415 176.654 194.694 152.189 194.694 152.189Z" fill="url(#paint2_linear)"/>
<path d="M159.666 100.979C164.584 108.895 170.942 115.731 178.379 121.367C191.095 131.201 178.499 158.545 177.899 172.217C177.42 183.13 183.897 198.241 199.612 208.435C210.888 215.87 202.971 232.66 202.971 241.055C202.971 249.45 221.205 229.182 221.924 219.588C222.764 207.715 219.765 199.32 211.368 189.726C203.571 180.732 194.454 147.032 191.935 131.081C191.695 129.402 191.575 127.843 191.695 126.164C191.935 120.528 191.215 102.658 175.14 92.5844C155.947 80.5916 143.951 91.625 136.154 98.2211C126.677 106.256 122.838 128.683 125.237 163.462C127.637 198.241 121.639 218.029 117.56 228.103C108.203 251.009 133.635 234.939 138.313 221.747C144.311 204.837 148.509 203.518 157.027 190.326C160.385 185.169 155.947 167.659 152.228 160.344C145.151 146.192 141.072 140.316 141.072 130.722C141.072 121.127 152.468 104.577 159.666 100.979Z" fill="url(#paint3_linear)"/>
<path opacity="0.07" d="M163.384 163.102C163.384 163.102 176.94 163.942 180.659 155.307C181.018 154.347 178.499 181.691 177.779 178.093C176.82 174.375 163.384 163.102 163.384 163.102Z" fill="black"/>
<path opacity="0.07" d="M139.512 226.304C139.512 226.304 136.394 245.733 134.714 254.607C133.754 259.404 133.155 264.201 133.035 269.119C133.035 269.119 144.551 254.727 148.27 248.971C150.549 245.373 143.591 247.172 142.991 233.98C142.392 220.788 142.511 212.273 142.511 212.273L139.512 226.304Z" fill="black"/>
<path opacity="0.07" d="M140.472 288.787C140.472 288.787 150.789 278.713 151.269 273.436C151.868 266.48 156.787 266.84 156.787 271.157C156.787 275.475 149.109 307.735 153.788 316.25C158.466 324.765 162.185 324.645 162.185 324.645L136.993 326.444L140.472 288.787Z" fill="black"/>
<path opacity="0.07" d="M162.065 324.525C162.065 324.525 163.504 350.19 154.387 358.705C135.794 376.094 146.71 398.881 138.433 408.835C131.475 417.11 129.676 440.975 113.002 446.252C106.404 448.411 82.6519 433.9 77.8535 432.221C67.657 428.743 60.4594 409.194 28.6702 399.12C21.2328 396.722 48.2236 399.24 48.2236 399.24L106.764 423.466L136.993 326.444L162.065 324.525Z" fill="black"/>
</g>
<defs>
<linearGradient id="paint0_linear" x1="34.7727" y1="444.629" x2="220.608" y2="444.629" gradientUnits="userSpaceOnUse">
<stop stop-color="#4F68CA"/>
<stop offset="1" stop-color="#5ACEED"/>
</linearGradient>
<linearGradient id="paint1_linear" x1="123.198" y1="140.879" x2="234.031" y2="140.879" gradientUnits="userSpaceOnUse">
<stop offset="0.11" stop-color="#F87B58"/>
<stop offset="0.5" stop-color="#F8C548"/>
<stop offset="1" stop-color="#F89C51"/>
</linearGradient>
<linearGradient id="paint2_linear" x1="123.361" y1="241.859" x2="296.684" y2="121.193" gradientUnits="userSpaceOnUse">
<stop stop-color="#7658F4"/>
<stop offset="1" stop-color="#E1A1ED"/>
</linearGradient>
<linearGradient id="paint3_linear" x1="115.509" y1="165.146" x2="222.06" y2="165.146" gradientUnits="userSpaceOnUse">
<stop stop-color="#4B44BE"/>
<stop offset="1" stop-color="#5BD3EF"/>
</linearGradient>
<clipPath id="clip0">
<rect width="235" height="600" fill="white"/>
</clipPath>
</defs>
</svg>
