<svg width="62" height="21" viewBox="0 0 62 21" fill="none" xmlns="http://www.w3.org/2000/svg">
<path fill-rule="evenodd" clip-rule="evenodd" d="M43.9124 16.2091L44.0864 15.4438L43.5569 14.8645C42.2545 13.4397 41.5005 11.6644 41.5005 9.75C41.5005 5.3575 45.5779 1.5 51.0005 1.5C56.4231 1.5 60.5005 5.3575 60.5005 9.75C60.5005 14.1425 56.4231 18 51.0005 18C49.5536 18 48.1868 17.7083 46.9551 17.2029L46.0996 16.8519L45.4017 17.4585C44.8266 17.9583 43.9332 18.6096 42.7951 19.0406C43.2351 18.2409 43.673 17.2622 43.9124 16.2091ZM41.4596 20.9234C41.501 20.9177 41.5422 20.9117 41.5833 20.9054C43.8127 20.5634 45.4881 19.3708 46.3857 18.5906C47.7908 19.1672 49.3505 19.5 51.0005 19.5C57.0763 19.5 62.0005 15.1359 62.0005 9.75C62.0005 4.36406 57.0763 0 51.0005 0C44.9248 0 40.0005 4.36406 40.0005 9.75C40.0005 12.075 40.9201 14.2031 42.4497 15.8766C42.1236 17.3113 41.3331 18.6509 40.7577 19.4871L40.7092 19.5572C40.5697 19.7573 40.4446 19.9258 40.3443 20.0564C40.1945 20.2514 40.0999 20.3619 40.0951 20.3672C40.0005 20.475 39.9748 20.6344 40.0306 20.775C40.0865 20.9156 40.2068 21 40.3443 21C40.4891 21 40.632 20.9961 40.7731 20.9887L40.8021 20.9871C41.0261 20.9745 41.2453 20.9529 41.4596 20.9234ZM12.1213 4.02197L12.9677 3.07041L12.9684 3.06968C14.6511 1.17556 17.1904 0.997845 18.8434 2.53428C20.9289 4.47669 21.0573 8.05436 19.1646 10.1851L19.1643 10.1854L10.9984 19.3838L2.83302 10.1861L10.5458 4.77066L11.0005 5.28182L12.1213 4.02197ZM10.5457 4.7705L12.9684 3.06968L10.5458 4.77066L10.5457 4.7705ZM10.5457 4.7705L2.83242 10.1854C0.943495 8.0543 1.07232 4.4763 3.1579 2.53406C4.81147 0.997315 7.35416 1.17657 9.03168 3.06857L9.03331 3.07041L9.87979 4.02197L10.5457 4.7705ZM1.71068 11.1812L10.0251 20.5469C10.5622 21.1516 11.4345 21.1516 11.9716 20.5469L20.2861 11.1812C22.7052 8.45781 22.5634 3.94843 19.865 1.43593C17.5675 -0.699902 14.178 -0.377001 12.007 1.89959C11.9529 1.95633 11.8996 2.01428 11.847 2.07343L11.0005 3.025L10.154 2.07343C10.1015 2.01422 10.0482 1.95622 9.99419 1.89943C7.82702 -0.377016 4.43345 -0.699851 2.13607 1.43593C-0.562363 3.94843 -0.70416 8.45781 1.71068 11.1812Z" fill="#4F4F4F"/>
</svg>
