<svg width="42" height="42" viewBox="0 0 42 42" fill="none" xmlns="http://www.w3.org/2000/svg">
<circle cx="21" cy="21" r="20.5" fill="#2E92EF" stroke="#2E92EF"/>
<path d="M14.3721 31H9.39643V16.9794H14.3721V31ZM11.8816 15.0668C10.2905 15.0668 9 13.9137 9 12.5215C9 11.8527 9.3036 11.2114 9.844 10.7385C10.3844 10.2657 11.1174 10 11.8816 10C12.6459 10 13.3788 10.2657 13.9192 10.7385C14.4596 11.2114 14.7632 11.8527 14.7632 12.5215C14.7632 13.9137 13.4721 15.0668 11.8816 15.0668ZM32.9946 31H28.0296V24.1748C28.0296 22.5482 27.9921 20.4623 25.4427 20.4623C22.8557 20.4623 22.4593 22.2295 22.4593 24.0577V31H17.4889V16.9794H22.2611V18.8919H22.3307C22.995 17.7903 24.6177 16.6278 27.0386 16.6278C32.0743 16.6278 33 19.5294 33 23.2983V31H32.9946Z" fill="white"/>
</svg>
