<svg width="84" height="24" viewBox="0 0 84 24" fill="none" xmlns="http://www.w3.org/2000/svg">
<path d="M80.625 10.1563L75.125 4.40635C74.375 3.59385 73 4.1251 73 5.28135V8.03135C67.8125 8.09385 63 9.03135 63 14.3751C63 17.3439 64.7188 19.0626 65.7812 19.8126C66.5312 20.3751 67.5938 19.6563 67.3125 18.7501C66.125 14.5313 68.1562 14.0626 73 14.0313V16.7501C73 17.9063 74.375 18.4376 75.125 17.6251L80.625 11.8751C81.0938 11.4063 81.0938 10.6251 80.625 10.1563ZM79.9062 11.1876L74.4062 16.9376C74.25 17.0939 74 17.0001 74 16.7501V13.0001C68.625 13.0001 64.75 13.3126 66.375 19.0001C65.25 18.1876 64 16.6876 64 14.3751C64 9.3751 69.0625 9.0001 74 9.0001V5.2501C74 5.03135 74.25 4.9376 74.4062 5.09385L79.9062 10.8439C79.9688 10.8751 80 10.9689 80 11.0001C80 11.0626 79.9688 11.1563 79.9062 11.1876Z" fill="#4F4F4F"/>
<path d="M48 4H36C34.875 4 34 4.90625 34 6V15C34 16.125 34.875 17 36 17H39V19.625C39 19.875 39.1562 20 39.375 20C39.4375 20 39.5 20 39.5938 19.9375L43.5 17H48C49.0938 17 50 16.125 50 15V6C50 4.90625 49.0938 4 48 4ZM49 15C49 15.5625 48.5312 16 48 16H43.1562L42.875 16.2188L40 18.375V16H36C35.4375 16 35 15.5625 35 15V6C35 5.46875 35.4375 5 36 5H48C48.5312 5 49 5.46875 49 6V15Z" fill="#4F4F4F"/>
<path d="M19.5 12.9375C19.8125 12.5312 20 12 20 11.375C19.9688 10.1875 18.9688 9.09375 17.7188 9.09375H15.5312C15.7812 8.5625 16.1562 7.875 16.1562 6.9375C16.1562 5.09375 15.4375 4 13.5625 4C12.625 4 12.2812 5.1875 12.125 6.125C12 6.65625 11.9062 7.1875 11.5938 7.5C10.8438 8.21875 9.75 10 9.0625 10.375C9 10.4062 8.90625 10.4375 8.8125 10.4375C8.625 10.1875 8.3125 10 8 10H5C4.4375 10 4 10.4688 4 11V19C4 19.5625 4.4375 20 5 20H8C8.53125 20 9 19.5625 9 19V18.75C10 18.75 12.125 20.0312 14.5312 20C14.6875 20 15.7188 20.0312 15.8125 20C17.6562 20 18.6875 18.9062 18.625 17.2188C19.0938 16.6562 19.3438 15.8438 19.2188 15.125C19.5938 14.5 19.6875 13.6562 19.5 12.9375ZM5 19V11H8V19H5ZM18.25 12.6562C18.75 13 18.75 14.5 18.0625 14.875C18.4688 15.5625 18.0938 16.5312 17.5938 16.8125C17.8438 18.4375 17 19 15.8125 19C15.6875 19.0312 14.625 19 14.5312 19C12.25 19 10.3125 17.75 9 17.75V11.375C10.1562 11.375 11.25 9.25 12.3125 8.1875C13.25 7.25 12.9375 5.65625 13.5625 5C15.1562 5 15.1562 6.125 15.1562 6.9375C15.1562 8.25 14.2188 8.84375 14.2188 10.0938H17.7188C18.4375 10.0938 18.9688 10.75 19 11.375C19 12 18.75 12.5 18.25 12.6562ZM7.25 17.5C7.25 17.0938 6.90625 16.75 6.5 16.75C6.0625 16.75 5.75 17.0938 5.75 17.5C5.75 17.9375 6.0625 18.25 6.5 18.25C6.90625 18.25 7.25 17.9375 7.25 17.5Z" fill="#4F4F4F"/>
</svg>
